<?xml version="1.0" encoding="UTF-8"?>
<svg xmlns="http://www.w3.org/2000/svg" xmlns:xlink="http://www.w3.org/1999/xlink" viewBox="0 0 48 48" width="48px" height="48px">
<g id="surface41717019">
<path style=" stroke:none;fill-rule:nonzero;fill:rgb(10.196079%,73.725492%,61.176473%);fill-opacity:1;" d="M 17.828125 9 C 9.640625 9 9 9.640625 9 17.828125 L 9 30.167969 C 9 38.359375 9.640625 39 17.828125 39 L 30.167969 39 C 38.359375 39 39 38.359375 39 30.167969 L 39 18.726562 L 36 23.363281 L 36 32.125 C 36 35.71875 35.71875 36 32.125 36 L 15.875 36 C 12.28125 36 12 35.71875 12 32.125 L 12 15.875 C 12 12.28125 12.28125 12 15.875 12 L 32.125 12 C 33.074219 12 33.789062 12.019531 34.332031 12.117188 L 36.050781 9.457031 C 34.746094 9.070312 32.871094 9 30.167969 9 Z M 38.222656 11.484375 C 37.742188 11.496094 37.273438 11.734375 36.992188 12.167969 L 26.097656 29.003906 L 19.332031 21.25 C 18.789062 20.628906 17.84375 20.5625 17.214844 21.105469 C 16.59375 21.652344 16.527344 22.601562 17.074219 23.222656 L 25.144531 32.476562 C 25.429688 32.804688 25.84375 32.988281 26.277344 32.988281 C 26.3125 32.988281 26.347656 32.988281 26.382812 32.988281 C 26.855469 32.953125 27.28125 32.699219 27.535156 32.304688 L 39.507812 13.800781 C 39.960938 13.105469 39.761719 12.175781 39.066406 11.726562 C 38.804688 11.558594 38.511719 11.480469 38.222656 11.484375 Z M 38.222656 11.484375 "/>
</g>
</svg>
